<svg xmlns="http://www.w3.org/2000/svg" viewBox="0 0 88 88" role="img" aria-label="SABINUS">
  <defs>
    <linearGradient id="body" x1="0" y1="0" x2="1" y2="1">
      <stop offset="0" stop-color="#3aa0ad"/><stop offset=".42" stop-color="#1f5e84"/><stop offset="1" stop-color="#0c2746"/>
    </linearGradient>
    <linearGradient id="sheen" x1="0" y1="0" x2="0" y2="1">
      <stop offset="0" stop-color="#ffffff" stop-opacity=".8"/><stop offset=".5" stop-color="#ffffff" stop-opacity=".06"/><stop offset="1" stop-color="#ffffff" stop-opacity="0"/>
    </linearGradient>
    <radialGradient id="corner" cx="20%" cy="16%" r="60%"><stop offset="0" stop-color="#cdeef4" stop-opacity=".85"/><stop offset="1" stop-color="#cdeef4" stop-opacity="0"/></radialGradient>
    <radialGradient id="lowGlow" cx="78%" cy="86%" r="55%"><stop offset="0" stop-color="#7fd0dc" stop-opacity=".4"/><stop offset="1" stop-color="#7fd0dc" stop-opacity="0"/></radialGradient>
    <linearGradient id="edge" x1="0" y1="0" x2="1" y2="1"><stop offset="0" stop-color="#dff5fa" stop-opacity=".95"/><stop offset=".5" stop-color="#9be3ee" stop-opacity=".5"/><stop offset="1" stop-color="#7fd0dc" stop-opacity=".7"/></linearGradient>
    <radialGradient id="orbW" cx="38%" cy="30%" r="80%"><stop offset="0" stop-color="#ffffff"/><stop offset="1" stop-color="#dfe7ea"/></radialGradient>
    <radialGradient id="orbB" cx="38%" cy="30%" r="80%"><stop offset="0" stop-color="#e6c178"/><stop offset=".5" stop-color="#B0863C"/><stop offset="1" stop-color="#8a6526"/></radialGradient>
    <radialGradient id="orbT" cx="38%" cy="30%" r="78%"><stop offset="0" stop-color="#bdeef5"/><stop offset=".5" stop-color="#2C8C9C"/><stop offset="1" stop-color="#1d6f7d"/></radialGradient>
    <filter id="soft" x="-40%" y="-40%" width="180%" height="180%"><feGaussianBlur stdDeviation="2.4"/></filter>
    <filter id="soft2" x="-40%" y="-40%" width="180%" height="180%"><feGaussianBlur stdDeviation="1.4"/></filter>
    <clipPath id="cp"><rect x="3" y="3" width="82" height="82" rx="24"/></clipPath>
  </defs>
  <rect x="3" y="3" width="82" height="82" rx="24" fill="url(#body)" opacity=".93"/>
  <g clip-path="url(#cp)">
    <rect x="3" y="3" width="82" height="82" fill="url(#corner)"/>
    <rect x="3" y="3" width="82" height="82" fill="url(#lowGlow)"/>
    <ellipse cx="40" cy="2" rx="55" ry="36" fill="url(#sheen)" filter="url(#soft)"/>
    <rect x="7" y="7" width="74" height="74" rx="20" fill="none" stroke="#bfeaf1" stroke-opacity=".5" stroke-width="3" filter="url(#soft2)"/>
  </g>
  <circle cx="30" cy="55" r="11.5" fill="url(#orbW)"/><circle cx="27" cy="51.5" r="3" fill="#ffffff"/>
  <circle cx="47" cy="39" r="8" fill="url(#orbB)"/><circle cx="44.6" cy="36.6" r="2.1" fill="#fbeccb"/>
  <circle cx="61" cy="27" r="5.6" fill="url(#orbT)"/><circle cx="59" cy="25" r="1.7" fill="#eafafc"/>
  <rect x="3.5" y="3.5" width="81" height="81" rx="23.5" fill="none" stroke="url(#edge)" stroke-width="1.6"/>
</svg>
