<?xml version="1.0" encoding="UTF-8"?>
<svg xmlns="http://www.w3.org/2000/svg" width="1112" height="267" viewBox="0 0 1112 267" role="img" aria-label="Transparent vector logo">
  <title>Transparent vector logo</title>
  <path d="M 505 72 L 505 197 L 541 197 L 541 74 L 542 73 L 543 74 L 543 75 L 544 76 L 544 77 L 545 78 L 545 79 L 546 80 L 546 81 L 547 82 L 547 83 L 548 84 L 548 85 L 549 86 L 549 87 L 550 88 L 550 89 L 551 90 L 551 91 L 552 92 L 552 93 L 553 94 L 553 95 L 554 96 L 554 97 L 555 98 L 555 99 L 556 100 L 556 101 L 557 102 L 557 103 L 558 104 L 558 105 L 559 106 L 559 107 L 560 108 L 560 109 L 561 110 L 561 111 L 562 112 L 562 113 L 563 114 L 563 115 L 564 116 L 564 117 L 565 118 L 565 119 L 566 120 L 566 121 L 567 122 L 567 123 L 568 124 L 568 125 L 569 126 L 569 127 L 570 128 L 570 129 L 571 130 L 571 131 L 572 132 L 572 133 L 573 134 L 573 135 L 574 136 L 574 137 L 575 138 L 575 139 L 576 140 L 576 141 L 577 142 L 577 143 L 578 144 L 578 145 L 579 146 L 579 147 L 580 148 L 580 149 L 581 150 L 581 151 L 582 152 L 582 153 L 583 154 L 583 155 L 584 156 L 584 157 L 585 158 L 585 159 L 586 160 L 586 161 L 587 162 L 587 163 L 588 164 L 588 165 L 589 166 L 589 167 L 590 168 L 590 169 L 591 170 L 591 171 L 592 172 L 592 173 L 593 174 L 593 175 L 594 176 L 594 177 L 595 178 L 595 179 L 596 180 L 596 181 L 597 182 L 597 183 L 598 184 L 598 185 L 599 186 L 599 187 L 600 188 L 600 189 L 601 190 L 601 191 L 602 192 L 602 193 L 603 194 L 604 197 L 654 197 L 655 196 L 655 195 L 656 194 L 656 193 L 657 192 L 657 191 L 658 190 L 658 189 L 659 188 L 659 187 L 660 186 L 660 185 L 661 184 L 661 183 L 662 182 L 662 181 L 663 180 L 663 179 L 664 178 L 664 177 L 665 176 L 665 175 L 666 174 L 666 173 L 667 172 L 667 171 L 668 170 L 668 169 L 669 168 L 669 167 L 670 166 L 670 165 L 671 164 L 671 163 L 672 162 L 672 161 L 673 160 L 673 159 L 674 158 L 674 157 L 675 156 L 675 155 L 676 154 L 676 153 L 677 152 L 677 151 L 678 150 L 678 149 L 679 148 L 679 147 L 680 146 L 680 145 L 681 144 L 681 143 L 682 142 L 682 141 L 683 140 L 683 139 L 684 138 L 684 137 L 685 136 L 685 135 L 686 134 L 686 133 L 687 132 L 687 131 L 688 130 L 688 129 L 689 128 L 689 127 L 690 126 L 690 125 L 691 124 L 691 123 L 692 122 L 692 121 L 693 120 L 693 119 L 694 118 L 694 117 L 695 116 L 695 115 L 696 114 L 696 113 L 697 112 L 697 111 L 698 110 L 698 109 L 699 108 L 699 107 L 700 106 L 700 105 L 701 104 L 701 103 L 702 102 L 702 101 L 703 100 L 703 99 L 704 98 L 704 97 L 705 96 L 705 95 L 706 94 L 706 93 L 707 92 L 707 91 L 708 90 L 708 89 L 709 88 L 709 87 L 710 86 L 710 85 L 711 84 L 711 83 L 712 82 L 712 81 L 715 76 L 716 77 L 716 147 L 717 148 L 717 153 L 718 154 L 718 158 L 719 159 L 719 161 L 720 162 L 720 164 L 722 167 L 722 169 L 723 170 L 723 171 L 725 173 L 726 176 L 728 178 L 728 179 L 738 189 L 739 189 L 741 191 L 742 191 L 743 192 L 744 192 L 745 193 L 746 193 L 751 196 L 753 196 L 754 197 L 756 197 L 757 198 L 759 198 L 760 199 L 764 199 L 765 200 L 770 200 L 771 201 L 796 201 L 797 200 L 802 200 L 803 199 L 807 199 L 808 198 L 810 198 L 811 197 L 813 197 L 814 196 L 816 196 L 817 195 L 818 195 L 819 194 L 820 194 L 821 193 L 822 193 L 823 192 L 826 191 L 828 189 L 829 189 L 831 187 L 832 187 L 842 177 L 842 176 L 845 173 L 845 172 L 847 170 L 847 169 L 849 166 L 850 167 L 850 175 L 849 176 L 849 197 L 885 197 L 885 72 L 849 72 L 849 131 L 848 132 L 848 136 L 847 137 L 847 139 L 846 140 L 846 142 L 845 143 L 845 144 L 844 145 L 844 146 L 843 147 L 842 150 L 840 152 L 840 153 L 830 163 L 829 163 L 827 165 L 826 165 L 824 167 L 823 167 L 820 169 L 818 169 L 817 170 L 815 170 L 814 171 L 811 171 L 810 172 L 806 172 L 805 173 L 786 173 L 785 172 L 781 172 L 780 171 L 777 171 L 776 170 L 774 170 L 773 169 L 770 168 L 768 166 L 767 166 L 759 158 L 759 157 L 757 155 L 757 154 L 755 151 L 755 149 L 754 148 L 754 146 L 753 145 L 753 141 L 752 140 L 752 72 L 677 72 L 676 73 L 676 74 L 675 75 L 675 77 L 674 78 L 674 79 L 673 80 L 673 81 L 672 82 L 672 83 L 671 84 L 671 85 L 670 86 L 670 87 L 667 92 L 667 94 L 666 95 L 666 96 L 665 97 L 665 98 L 664 99 L 664 100 L 663 101 L 663 102 L 662 103 L 662 104 L 661 105 L 661 106 L 658 111 L 658 113 L 657 114 L 657 115 L 656 116 L 656 117 L 655 118 L 655 119 L 654 120 L 654 121 L 653 122 L 653 123 L 652 124 L 652 125 L 649 130 L 649 132 L 648 133 L 648 134 L 647 135 L 647 136 L 646 137 L 646 138 L 645 139 L 645 140 L 644 141 L 644 142 L 643 143 L 643 144 L 640 149 L 640 151 L 639 152 L 639 153 L 638 154 L 638 155 L 637 156 L 637 157 L 636 158 L 636 159 L 635 160 L 635 161 L 632 166 L 632 168 L 631 169 L 631 171 L 630 172 L 629 172 L 627 169 L 627 167 L 626 166 L 626 165 L 625 164 L 625 163 L 622 158 L 622 156 L 621 155 L 621 154 L 620 153 L 620 152 L 619 151 L 619 150 L 618 149 L 618 148 L 617 147 L 617 146 L 616 145 L 616 144 L 613 139 L 613 137 L 612 136 L 612 135 L 611 134 L 611 133 L 610 132 L 610 131 L 609 130 L 609 129 L 608 128 L 608 127 L 605 122 L 605 120 L 604 119 L 604 118 L 603 117 L 603 116 L 602 115 L 602 114 L 601 113 L 601 112 L 600 111 L 600 110 L 599 109 L 599 108 L 596 103 L 596 101 L 595 100 L 595 99 L 594 98 L 594 97 L 593 96 L 593 95 L 592 94 L 592 93 L 591 92 L 591 91 L 590 90 L 590 89 L 587 84 L 587 82 L 586 81 L 586 80 L 585 79 L 585 78 L 584 77 L 584 76 L 583 75 L 582 72 Z M 231 94 L 231 95 L 230 96 L 230 97 L 227 102 L 227 104 L 226 105 L 226 107 L 225 108 L 225 112 L 260 112 L 260 111 L 261 110 L 261 108 L 262 107 L 263 104 L 270 97 L 271 97 L 276 94 L 278 94 L 279 93 L 281 93 L 282 92 L 286 92 L 287 91 L 295 91 L 296 90 L 307 90 L 308 91 L 317 91 L 318 92 L 322 92 L 323 93 L 325 93 L 326 94 L 328 94 L 329 95 L 330 95 L 331 96 L 332 96 L 333 97 L 336 98 L 342 104 L 342 105 L 344 107 L 344 108 L 345 109 L 345 111 L 346 112 L 346 115 L 347 116 L 347 123 L 346 124 L 343 124 L 342 123 L 339 123 L 338 122 L 335 122 L 334 121 L 330 121 L 329 120 L 325 120 L 324 119 L 318 119 L 317 118 L 311 118 L 310 117 L 300 117 L 299 116 L 274 116 L 273 117 L 265 117 L 264 118 L 259 118 L 258 119 L 254 119 L 253 120 L 251 120 L 250 121 L 247 121 L 244 123 L 242 123 L 241 124 L 238 125 L 236 127 L 235 127 L 233 129 L 232 129 L 226 135 L 226 136 L 224 138 L 224 139 L 222 142 L 222 144 L 221 145 L 221 147 L 220 148 L 220 153 L 219 154 L 219 162 L 220 163 L 220 168 L 221 169 L 221 172 L 222 173 L 222 174 L 223 175 L 223 176 L 224 177 L 225 180 L 227 182 L 227 183 L 233 189 L 234 189 L 239 193 L 240 193 L 243 195 L 245 195 L 248 197 L 251 197 L 252 198 L 254 198 L 255 199 L 260 199 L 261 200 L 268 200 L 269 201 L 291 201 L 292 200 L 297 200 L 298 199 L 302 199 L 303 198 L 306 198 L 307 197 L 309 197 L 310 196 L 312 196 L 313 195 L 314 195 L 315 194 L 316 194 L 317 193 L 318 193 L 319 192 L 320 192 L 321 191 L 322 191 L 323 190 L 326 189 L 329 186 L 330 186 L 333 183 L 334 183 L 339 178 L 339 177 L 343 173 L 343 172 L 345 170 L 345 169 L 347 166 L 348 167 L 348 176 L 347 177 L 347 197 L 383 197 L 383 119 L 382 118 L 382 113 L 381 112 L 381 109 L 380 108 L 380 106 L 379 105 L 379 103 L 378 102 L 378 100 L 377 99 L 376 96 L 372 91 L 372 90 L 365 83 L 364 83 L 359 79 L 358 79 L 357 78 L 356 78 L 351 75 L 349 75 L 348 74 L 346 74 L 345 73 L 343 73 L 342 72 L 339 72 L 338 71 L 335 71 L 334 70 L 329 70 L 328 69 L 320 69 L 319 68 L 287 68 L 286 69 L 278 69 L 277 70 L 272 70 L 271 71 L 268 71 L 267 72 L 264 72 L 263 73 L 261 73 L 260 74 L 258 74 L 257 75 L 255 75 L 254 76 L 253 76 L 252 77 L 251 77 L 250 78 L 247 79 L 245 81 L 244 81 L 242 83 L 241 83 L 234 90 L 234 91 Z M 906 88 L 906 89 L 905 90 L 905 91 L 902 96 L 902 99 L 901 100 L 901 113 L 902 114 L 902 117 L 903 118 L 903 120 L 904 121 L 904 122 L 906 124 L 906 125 L 912 131 L 913 131 L 915 133 L 916 133 L 917 134 L 918 134 L 923 137 L 925 137 L 926 138 L 928 138 L 929 139 L 931 139 L 932 140 L 935 140 L 936 141 L 939 141 L 940 142 L 944 142 L 945 143 L 950 143 L 951 144 L 957 144 L 958 145 L 965 145 L 966 146 L 975 146 L 976 147 L 983 147 L 984 148 L 989 148 L 990 149 L 994 149 L 995 150 L 998 150 L 999 151 L 1001 151 L 1002 152 L 1004 152 L 1005 153 L 1006 153 L 1012 159 L 1012 167 L 1007 172 L 1006 172 L 1003 174 L 1001 174 L 1000 175 L 997 175 L 996 176 L 989 176 L 988 177 L 965 177 L 964 176 L 958 176 L 957 175 L 953 175 L 952 174 L 950 174 L 949 173 L 947 173 L 946 172 L 945 172 L 944 171 L 941 170 L 934 163 L 934 162 L 932 159 L 932 155 L 897 155 L 897 159 L 898 160 L 898 164 L 899 165 L 899 168 L 900 169 L 900 170 L 901 171 L 901 172 L 902 173 L 903 176 L 907 180 L 907 181 L 910 184 L 911 184 L 914 187 L 915 187 L 917 189 L 918 189 L 919 190 L 920 190 L 921 191 L 922 191 L 927 194 L 929 194 L 930 195 L 932 195 L 933 196 L 935 196 L 936 197 L 939 197 L 940 198 L 943 198 L 944 199 L 949 199 L 950 200 L 957 200 L 958 201 L 994 201 L 995 200 L 1002 200 L 1003 199 L 1008 199 L 1009 198 L 1013 198 L 1014 197 L 1016 197 L 1017 196 L 1020 196 L 1023 194 L 1025 194 L 1026 193 L 1027 193 L 1028 192 L 1029 192 L 1030 191 L 1033 190 L 1035 188 L 1036 188 L 1043 181 L 1043 180 L 1045 178 L 1046 179 L 1046 180 L 1045 181 L 1045 189 L 1046 190 L 1046 192 L 1050 197 L 1051 197 L 1056 200 L 1059 200 L 1060 201 L 1076 201 L 1077 200 L 1080 200 L 1081 199 L 1084 198 L 1089 193 L 1089 191 L 1090 190 L 1090 186 L 1091 185 L 1091 184 L 1090 183 L 1090 179 L 1089 178 L 1088 175 L 1085 172 L 1084 172 L 1081 170 L 1079 170 L 1078 169 L 1074 169 L 1073 168 L 1062 168 L 1061 169 L 1057 169 L 1056 170 L 1054 170 L 1053 171 L 1052 171 L 1048 175 L 1047 174 L 1047 172 L 1048 171 L 1048 167 L 1049 166 L 1049 156 L 1048 155 L 1048 152 L 1047 151 L 1047 149 L 1046 148 L 1045 145 L 1043 143 L 1043 142 L 1036 136 L 1035 136 L 1034 135 L 1033 135 L 1032 134 L 1031 134 L 1026 131 L 1024 131 L 1023 130 L 1021 130 L 1020 129 L 1018 129 L 1017 128 L 1014 128 L 1013 127 L 1010 127 L 1009 126 L 1004 126 L 1003 125 L 998 125 L 997 124 L 990 124 L 989 123 L 978 123 L 977 122 L 967 122 L 966 121 L 959 121 L 958 120 L 954 120 L 953 119 L 950 119 L 949 118 L 947 118 L 946 117 L 943 116 L 939 112 L 939 111 L 938 110 L 938 108 L 937 107 L 937 104 L 938 103 L 938 101 L 943 96 L 944 96 L 947 94 L 950 94 L 951 93 L 956 93 L 957 92 L 977 92 L 978 93 L 985 93 L 986 94 L 990 94 L 991 95 L 993 95 L 994 96 L 996 96 L 997 97 L 998 97 L 999 98 L 1002 99 L 1008 105 L 1008 106 L 1010 109 L 1010 111 L 1046 111 L 1046 104 L 1045 103 L 1045 101 L 1044 100 L 1044 99 L 1043 98 L 1042 95 L 1040 93 L 1040 92 L 1032 84 L 1031 84 L 1028 81 L 1027 81 L 1026 80 L 1025 80 L 1024 79 L 1023 79 L 1022 78 L 1021 78 L 1016 75 L 1014 75 L 1013 74 L 1011 74 L 1010 73 L 1008 73 L 1007 72 L 1004 72 L 1003 71 L 999 71 L 998 70 L 993 70 L 992 69 L 985 69 L 984 68 L 953 68 L 952 69 L 944 69 L 943 70 L 939 70 L 938 71 L 934 71 L 933 72 L 931 72 L 930 73 L 928 73 L 927 74 L 925 74 L 924 75 L 923 75 L 922 76 L 921 76 L 920 77 L 919 77 L 918 78 L 915 79 Z M 411 43 L 410 44 L 410 71 L 409 72 L 383 72 L 383 97 L 409 97 L 410 98 L 410 155 L 411 156 L 411 164 L 412 165 L 412 168 L 413 169 L 413 172 L 415 175 L 415 177 L 416 178 L 417 181 L 419 183 L 419 184 L 427 192 L 428 192 L 430 194 L 431 194 L 436 197 L 438 197 L 439 198 L 441 198 L 442 199 L 445 199 L 446 200 L 451 200 L 452 201 L 479 201 L 480 200 L 487 200 L 488 199 L 492 199 L 493 198 L 496 198 L 497 197 L 499 197 L 499 186 L 498 185 L 498 173 L 494 173 L 493 174 L 487 174 L 486 175 L 465 175 L 464 174 L 462 174 L 461 173 L 459 173 L 457 171 L 456 171 L 451 166 L 451 165 L 448 160 L 448 157 L 447 156 L 447 145 L 446 144 L 446 98 L 447 97 L 495 97 L 495 72 L 447 72 L 446 71 L 446 43 Z M 176 34 L 176 197 L 212 197 L 212 34 Z M 255 160 L 255 153 L 256 152 L 256 150 L 263 143 L 264 143 L 269 140 L 272 140 L 273 139 L 276 139 L 277 138 L 284 138 L 285 137 L 307 137 L 308 138 L 316 138 L 317 139 L 323 139 L 324 140 L 329 140 L 330 141 L 333 141 L 334 142 L 337 142 L 338 143 L 340 143 L 341 144 L 343 144 L 344 145 L 344 147 L 343 148 L 342 151 L 340 153 L 340 154 L 336 158 L 336 159 L 333 162 L 332 162 L 328 166 L 327 166 L 325 168 L 324 168 L 323 169 L 322 169 L 317 172 L 315 172 L 314 173 L 312 173 L 311 174 L 308 174 L 307 175 L 303 175 L 302 176 L 278 176 L 277 175 L 274 175 L 273 174 L 270 174 L 269 173 L 268 173 L 267 172 L 265 172 L 263 170 L 262 170 L 257 165 L 257 164 L 256 163 L 256 161 Z M 503 27 L 503 28 L 502 29 L 502 31 L 501 32 L 501 41 L 502 42 L 503 45 L 507 49 L 508 49 L 510 51 L 512 51 L 513 52 L 518 52 L 519 53 L 528 53 L 529 52 L 533 52 L 534 51 L 536 51 L 537 50 L 540 49 L 543 46 L 543 45 L 545 42 L 545 37 L 546 36 L 545 35 L 545 31 L 544 30 L 544 28 L 542 26 L 542 25 L 541 25 L 539 23 L 538 23 L 535 21 L 533 21 L 532 20 L 515 20 L 514 21 L 511 21 L 510 22 L 507 23 Z M 715 215 L 714 216 L 712 216 L 711 217 L 710 217 L 705 222 L 705 224 L 704 225 L 704 228 L 703 229 L 703 232 L 704 233 L 704 236 L 705 237 L 706 240 L 710 244 L 711 244 L 712 245 L 714 245 L 715 246 L 721 246 L 722 245 L 724 245 L 725 244 L 726 244 L 730 240 L 730 239 L 731 238 L 731 236 L 732 235 L 732 226 L 731 225 L 731 223 L 730 222 L 730 221 L 726 217 L 725 217 L 724 216 L 722 216 L 721 215 Z M 85 122 L 84 123 L 82 123 L 79 126 L 79 127 L 77 130 L 77 133 L 76 134 L 76 141 L 77 142 L 77 145 L 78 146 L 79 149 L 82 152 L 84 152 L 85 153 L 90 153 L 91 152 L 92 152 L 94 150 L 95 150 L 95 149 L 97 146 L 97 144 L 98 143 L 98 131 L 97 130 L 97 129 L 94 124 L 93 124 L 90 122 Z M 56 122 L 55 123 L 52 124 L 50 126 L 50 127 L 49 128 L 49 130 L 48 131 L 48 144 L 49 145 L 49 147 L 50 148 L 50 149 L 52 151 L 53 151 L 56 153 L 61 153 L 62 152 L 65 151 L 67 149 L 67 148 L 68 147 L 68 145 L 69 144 L 69 131 L 68 130 L 68 128 L 67 127 L 67 126 L 65 124 L 64 124 L 61 122 Z M 766 216 L 766 245 L 770 245 L 770 235 L 771 234 L 781 234 L 783 236 L 783 239 L 784 240 L 784 243 L 786 245 L 789 245 L 790 244 L 787 239 L 787 235 L 785 232 L 785 231 L 788 228 L 788 221 L 787 220 L 787 219 L 784 216 L 781 216 L 780 215 L 768 215 L 767 216 Z M 634 216 L 634 220 L 635 221 L 635 223 L 636 224 L 636 226 L 637 227 L 637 229 L 639 232 L 639 234 L 640 235 L 640 237 L 641 238 L 641 240 L 642 241 L 642 243 L 643 244 L 643 245 L 646 245 L 647 244 L 647 242 L 648 241 L 648 240 L 650 237 L 650 235 L 653 230 L 655 232 L 655 234 L 658 239 L 658 241 L 659 242 L 660 245 L 663 245 L 664 244 L 664 242 L 666 239 L 666 237 L 667 236 L 667 234 L 668 233 L 668 231 L 669 230 L 669 228 L 670 227 L 670 225 L 671 224 L 671 222 L 672 221 L 672 219 L 673 218 L 673 217 L 671 215 L 670 215 L 668 217 L 668 219 L 667 220 L 667 222 L 666 223 L 666 225 L 665 226 L 665 228 L 664 229 L 664 231 L 663 232 L 663 234 L 661 237 L 660 236 L 660 234 L 658 231 L 658 229 L 657 228 L 657 226 L 656 225 L 655 222 L 652 222 L 651 223 L 651 224 L 650 225 L 650 227 L 648 230 L 648 232 L 645 237 L 644 236 L 644 234 L 643 233 L 643 231 L 642 230 L 642 228 L 641 227 L 641 225 L 640 224 L 640 222 L 639 221 L 639 219 L 638 218 L 638 216 L 637 216 L 636 215 L 635 216 Z M 716 219 L 720 219 L 721 220 L 724 221 L 728 227 L 728 233 L 727 234 L 727 236 L 722 241 L 721 241 L 720 242 L 716 242 L 715 241 L 712 240 L 710 238 L 710 237 L 708 234 L 708 227 L 709 226 L 709 224 L 713 220 L 715 220 Z M 470 216 L 470 245 L 473 245 L 473 244 L 474 243 L 474 226 L 475 225 L 477 227 L 477 228 L 480 231 L 480 232 L 483 235 L 483 236 L 487 240 L 487 241 L 490 244 L 490 245 L 494 245 L 494 216 L 491 216 L 490 217 L 490 235 L 489 236 L 487 234 L 487 233 L 483 229 L 483 228 L 480 225 L 480 224 L 477 221 L 477 220 L 474 217 L 474 216 Z M 846 216 L 845 216 L 844 215 L 843 216 L 842 216 L 828 230 L 827 229 L 827 216 L 824 216 L 823 217 L 823 244 L 824 245 L 827 245 L 827 236 L 828 235 L 829 235 L 832 232 L 836 236 L 836 237 L 839 240 L 839 241 L 843 245 L 846 245 L 846 242 L 844 240 L 844 239 L 841 236 L 841 235 L 838 232 L 838 231 L 836 229 L 836 228 L 846 218 Z M 113 90 L 110 93 L 110 94 L 109 95 L 109 97 L 108 98 L 108 103 L 109 104 L 109 106 L 111 108 L 111 109 L 112 109 L 114 111 L 116 111 L 117 112 L 122 112 L 123 111 L 125 111 L 128 108 L 128 106 L 125 106 L 122 108 L 117 108 L 113 104 L 113 103 L 112 102 L 113 101 L 129 101 L 129 96 L 128 95 L 127 92 L 126 91 L 125 91 L 123 89 L 115 89 L 114 90 Z M 530 216 L 529 217 L 529 244 L 530 245 L 548 245 L 548 242 L 535 242 L 534 241 L 534 233 L 535 232 L 546 232 L 546 229 L 545 228 L 535 228 L 534 227 L 534 220 L 535 219 L 548 219 L 548 216 L 547 216 L 546 215 L 532 215 L 531 216 Z M 120 123 L 117 126 L 117 127 L 113 131 L 113 132 L 110 135 L 110 136 L 106 140 L 106 143 L 107 144 L 118 144 L 119 145 L 119 150 L 120 151 L 120 152 L 123 152 L 123 145 L 124 144 L 127 144 L 127 143 L 128 142 L 127 141 L 127 140 L 124 140 L 123 139 L 123 123 Z M 29 122 L 28 123 L 25 124 L 23 126 L 22 129 L 23 130 L 25 130 L 29 126 L 33 126 L 36 129 L 36 130 L 37 131 L 36 132 L 36 134 L 35 135 L 35 136 L 27 144 L 27 145 L 22 150 L 22 151 L 23 152 L 41 152 L 41 149 L 31 149 L 30 148 L 33 145 L 33 144 L 38 139 L 38 138 L 40 135 L 40 133 L 41 132 L 41 130 L 40 129 L 40 127 L 38 124 L 37 124 L 34 122 Z M 86 126 L 89 126 L 92 129 L 92 130 L 94 133 L 94 141 L 93 142 L 93 144 L 92 145 L 92 146 L 90 148 L 89 148 L 88 149 L 86 149 L 85 148 L 84 148 L 81 143 L 81 132 L 82 131 L 83 128 Z M 57 126 L 60 126 L 64 130 L 64 132 L 65 133 L 65 142 L 64 143 L 64 145 L 60 149 L 57 149 L 53 145 L 53 143 L 52 142 L 52 133 L 53 132 L 53 130 Z M 582 215 L 581 216 L 580 216 L 580 219 L 588 219 L 589 220 L 589 244 L 590 245 L 593 245 L 594 244 L 594 220 L 595 219 L 603 219 L 603 216 L 602 216 L 601 215 Z M 58 89 L 57 90 L 57 110 L 58 111 L 61 111 L 61 97 L 62 96 L 62 95 L 64 93 L 65 93 L 66 92 L 68 92 L 69 93 L 70 93 L 72 95 L 72 110 L 73 111 L 76 111 L 76 93 L 75 92 L 75 91 L 72 89 L 65 89 L 62 91 L 60 89 Z M 25 89 L 21 93 L 21 97 L 22 98 L 22 99 L 25 101 L 27 101 L 28 102 L 30 102 L 31 103 L 32 103 L 34 105 L 34 106 L 32 108 L 29 109 L 28 108 L 26 108 L 23 105 L 21 105 L 20 106 L 20 108 L 22 110 L 23 110 L 24 111 L 26 111 L 27 112 L 32 112 L 33 111 L 34 111 L 37 108 L 37 106 L 38 105 L 37 104 L 37 102 L 35 100 L 34 100 L 33 99 L 31 99 L 30 98 L 28 98 L 27 97 L 26 97 L 25 96 L 25 94 L 27 92 L 31 92 L 34 94 L 37 94 L 37 92 L 35 90 L 34 90 L 33 89 Z M 90 89 L 88 91 L 87 91 L 86 92 L 86 93 L 84 96 L 84 105 L 85 106 L 85 107 L 89 111 L 91 111 L 92 112 L 98 112 L 99 111 L 102 110 L 103 109 L 103 107 L 102 106 L 100 106 L 98 108 L 93 108 L 92 107 L 91 107 L 89 105 L 89 104 L 88 103 L 88 97 L 92 93 L 93 93 L 94 92 L 97 92 L 100 94 L 102 94 L 103 93 L 103 92 L 102 91 L 102 90 L 101 90 L 100 89 Z M 770 220 L 771 219 L 780 219 L 783 221 L 783 222 L 784 223 L 784 227 L 781 230 L 771 230 L 770 229 Z M 45 89 L 45 111 L 48 111 L 49 110 L 49 91 L 48 90 L 48 89 Z M 113 96 L 115 93 L 116 93 L 117 92 L 120 92 L 121 93 L 122 93 L 125 96 L 125 97 L 124 98 L 114 98 L 113 97 Z M 118 132 L 119 133 L 119 139 L 118 140 L 113 140 L 112 139 L 114 137 L 114 136 Z M 45 82 L 44 83 L 44 85 L 45 86 L 48 86 L 49 85 L 49 82 Z M 347 165 L 348 164 L 349 165 L 349 166 L 348 167 L 347 166 Z M 1045 177 L 1046 176 L 1047 177 L 1046 178 Z M 1046 175 L 1047 174 L 1048 175 L 1047 176 Z" fill="#000000" fill-rule="evenodd"/>
</svg>
